<mxfile host="app.diagrams.net" agent="Mozilla/5.0 (X11; Linux x86_64; rv:140.0) Gecko/20100101 Firefox/140.0" version="28.0.4">
  <diagram name="Page-1" id="uxHUiz3fvfQ2ZADVN1um">
    <mxGraphModel dx="1344" dy="840" grid="1" gridSize="10" guides="1" tooltips="1" connect="1" arrows="1" fold="1" page="1" pageScale="1" pageWidth="850" pageHeight="1100" math="0" shadow="0">
      <root>
        <mxCell id="0" />
        <mxCell id="1" parent="0" />
        <mxCell id="kufTj_RopSPvjLtaQXOu-8" value="calc" style="text;html=1;align=center;verticalAlign=middle;resizable=0;points=[];autosize=1;strokeColor=none;fillColor=none;" parent="1" vertex="1">
          <mxGeometry x="405" y="338" width="40" height="30" as="geometry" />
        </mxCell>
        <mxCell id="kufTj_RopSPvjLtaQXOu-9" value="" style="endArrow=classic;html=1;rounded=0;exitX=0.943;exitY=0.483;exitDx=0;exitDy=0;exitPerimeter=0;dashed=1;dashPattern=8 8;" parent="1" source="kufTj_RopSPvjLtaQXOu-38" edge="1">
          <mxGeometry width="50" height="50" relative="1" as="geometry">
            <mxPoint x="610" y="240" as="sourcePoint" />
            <mxPoint x="540" y="340" as="targetPoint" />
            <Array as="points">
              <mxPoint x="610" y="209" />
              <mxPoint x="610" y="340" />
            </Array>
          </mxGeometry>
        </mxCell>
        <mxCell id="kufTj_RopSPvjLtaQXOu-13" value="create" style="text;html=1;align=center;verticalAlign=middle;resizable=0;points=[];autosize=1;strokeColor=none;fillColor=none;" parent="1" vertex="1">
          <mxGeometry x="600" y="278" width="60" height="30" as="geometry" />
        </mxCell>
        <mxCell id="kufTj_RopSPvjLtaQXOu-20" value="" style="rounded=0;orthogonalLoop=1;jettySize=auto;html=1;fillColor=#dae8fc;strokeColor=#6c8ebf;entryX=0.995;entryY=0.63;entryDx=0;entryDy=0;entryPerimeter=0;" parent="1" target="kufTj_RopSPvjLtaQXOu-43" edge="1">
          <mxGeometry relative="1" as="geometry">
            <mxPoint x="450" y="339" as="sourcePoint" />
            <mxPoint x="400" y="359.0000000000001" as="targetPoint" />
          </mxGeometry>
        </mxCell>
        <mxCell id="kufTj_RopSPvjLtaQXOu-15" value="" style="endArrow=classic;html=1;rounded=0;" parent="1" edge="1">
          <mxGeometry width="50" height="50" relative="1" as="geometry">
            <mxPoint x="450" y="210" as="sourcePoint" />
            <mxPoint x="520" y="210" as="targetPoint" />
            <Array as="points">
              <mxPoint x="480" y="209.66" />
            </Array>
          </mxGeometry>
        </mxCell>
        <mxCell id="kufTj_RopSPvjLtaQXOu-18" value="" style="endArrow=classic;startArrow=classic;html=1;rounded=0;exitX=0.7;exitY=1;exitDx=0;exitDy=0;exitPerimeter=0;" parent="1" edge="1">
          <mxGeometry width="50" height="50" relative="1" as="geometry">
            <mxPoint x="364" y="130" as="sourcePoint" />
            <mxPoint x="399" y="180" as="targetPoint" />
          </mxGeometry>
        </mxCell>
        <mxCell id="kufTj_RopSPvjLtaQXOu-19" value="" style="endArrow=classic;html=1;rounded=0;entryX=0.92;entryY=0.979;entryDx=0;entryDy=0;entryPerimeter=0;" parent="1" target="kufTj_RopSPvjLtaQXOu-35" edge="1">
          <mxGeometry width="50" height="50" relative="1" as="geometry">
            <mxPoint x="460" y="320" as="sourcePoint" />
            <mxPoint x="270" y="250" as="targetPoint" />
          </mxGeometry>
        </mxCell>
        <mxCell id="kufTj_RopSPvjLtaQXOu-21" value="" style="endArrow=classic;html=1;rounded=0;" parent="1" edge="1">
          <mxGeometry width="50" height="50" relative="1" as="geometry">
            <mxPoint x="380" y="210" as="sourcePoint" />
            <mxPoint x="300" y="210" as="targetPoint" />
          </mxGeometry>
        </mxCell>
        <mxCell id="kufTj_RopSPvjLtaQXOu-22" value="" style="endArrow=classic;html=1;rounded=0;exitX=0.35;exitY=0.983;exitDx=0;exitDy=0;exitPerimeter=0;entryX=0.575;entryY=0.033;entryDx=0;entryDy=0;entryPerimeter=0;" parent="1" edge="1">
          <mxGeometry width="50" height="50" relative="1" as="geometry">
            <mxPoint x="322" y="128.98000000000002" as="sourcePoint" />
            <mxPoint x="269" y="181.98000000000002" as="targetPoint" />
          </mxGeometry>
        </mxCell>
        <mxCell id="kufTj_RopSPvjLtaQXOu-24" value="H2" style="shape=cylinder3;whiteSpace=wrap;html=1;boundedLbl=1;backgroundOutline=1;size=15;" parent="1" vertex="1">
          <mxGeometry x="170" y="258" width="60" height="62" as="geometry" />
        </mxCell>
        <mxCell id="kufTj_RopSPvjLtaQXOu-25" value="" style="endArrow=classic;html=1;rounded=0;exitX=0;exitY=0.5;exitDx=0;exitDy=0;" parent="1" target="kufTj_RopSPvjLtaQXOu-24" edge="1">
          <mxGeometry width="50" height="50" relative="1" as="geometry">
            <mxPoint x="230" y="210" as="sourcePoint" />
            <mxPoint x="420" y="360" as="targetPoint" />
            <Array as="points">
              <mxPoint x="200" y="210" />
            </Array>
          </mxGeometry>
        </mxCell>
        <mxCell id="kufTj_RopSPvjLtaQXOu-26" value="REST" style="text;html=1;align=center;verticalAlign=middle;resizable=0;points=[];autosize=1;strokeColor=none;fillColor=none;" parent="1" vertex="1">
          <mxGeometry x="300" y="264" width="60" height="30" as="geometry" />
        </mxCell>
        <mxCell id="kufTj_RopSPvjLtaQXOu-27" value="" style="shape=mxgraph.networks2.icon;aspect=fixed;fillColor=#EDEDED;strokeColor=#000000;gradientColor=#5B6163;network2IconShadow=1;network2bgFillColor=none;network2Icon=mxgraph.networks2.globe;network2IconW=1;network2IconH=1;" parent="1" vertex="1">
          <mxGeometry x="530" y="75" width="50" height="50" as="geometry" />
        </mxCell>
        <mxCell id="kufTj_RopSPvjLtaQXOu-28" value="" style="endArrow=classic;html=1;rounded=0;entryX=1;entryY=0.5;entryDx=0;entryDy=0;exitX=0.08;exitY=0.48;exitDx=0;exitDy=0;exitPerimeter=0;" parent="1" source="kufTj_RopSPvjLtaQXOu-27" edge="1">
          <mxGeometry width="50" height="50" relative="1" as="geometry">
            <mxPoint x="490" y="450" as="sourcePoint" />
            <mxPoint x="380" y="100" as="targetPoint" />
          </mxGeometry>
        </mxCell>
        <mxCell id="kufTj_RopSPvjLtaQXOu-30" value="Browser" style="text;html=1;align=center;verticalAlign=middle;resizable=0;points=[];autosize=1;strokeColor=none;fillColor=none;" parent="1" vertex="1">
          <mxGeometry x="520" y="123" width="70" height="30" as="geometry" />
        </mxCell>
        <mxCell id="kufTj_RopSPvjLtaQXOu-32" value="" style="aspect=fixed;sketch=0;html=1;dashed=0;whitespace=wrap;verticalLabelPosition=bottom;verticalAlign=top;fillColor=#2875E2;strokeColor=#ffffff;points=[[0.005,0.63,0],[0.1,0.2,0],[0.9,0.2,0],[0.5,0,0],[0.995,0.63,0],[0.72,0.99,0],[0.5,1,0],[0.28,0.99,0]];shape=mxgraph.kubernetes.icon2;kubernetesLabel=1;prIcon=ing" parent="1" vertex="1">
          <mxGeometry x="320" y="75" width="50" height="48" as="geometry" />
        </mxCell>
        <mxCell id="kufTj_RopSPvjLtaQXOu-34" value="" style="aspect=fixed;sketch=0;html=1;dashed=0;whitespace=wrap;verticalLabelPosition=bottom;verticalAlign=top;fillColor=#2875E2;strokeColor=#ffffff;points=[[0.005,0.63,0],[0.1,0.2,0],[0.9,0.2,0],[0.5,0,0],[0.995,0.63,0],[0.72,0.99,0],[0.5,1,0],[0.28,0.99,0]];shape=mxgraph.kubernetes.icon2;kubernetesLabel=1;prIcon=job" parent="1" vertex="1">
          <mxGeometry x="475" y="310" width="50" height="48" as="geometry" />
        </mxCell>
        <mxCell id="kufTj_RopSPvjLtaQXOu-35" value="" style="aspect=fixed;sketch=0;html=1;dashed=0;whitespace=wrap;verticalLabelPosition=bottom;verticalAlign=top;fillColor=#2875E2;strokeColor=#ffffff;points=[[0.005,0.63,0],[0.1,0.2,0],[0.9,0.2,0],[0.5,0,0],[0.995,0.63,0],[0.72,0.99,0],[0.5,1,0],[0.28,0.99,0]];shape=mxgraph.kubernetes.icon2;prIcon=svc" parent="1" vertex="1">
          <mxGeometry x="240" y="186" width="50" height="48" as="geometry" />
        </mxCell>
        <mxCell id="kufTj_RopSPvjLtaQXOu-36" value="" style="aspect=fixed;sketch=0;html=1;dashed=0;whitespace=wrap;verticalLabelPosition=bottom;verticalAlign=top;fillColor=#2875E2;strokeColor=#ffffff;points=[[0.005,0.63,0],[0.1,0.2,0],[0.9,0.2,0],[0.5,0,0],[0.995,0.63,0],[0.72,0.99,0],[0.5,1,0],[0.28,0.99,0]];shape=mxgraph.kubernetes.icon2;kubernetesLabel=1;prIcon=cm" parent="1" vertex="1">
          <mxGeometry x="460" y="125" width="50" height="48" as="geometry" />
        </mxCell>
        <mxCell id="kufTj_RopSPvjLtaQXOu-37" value="" style="aspect=fixed;sketch=0;html=1;dashed=0;whitespace=wrap;verticalLabelPosition=bottom;verticalAlign=top;fillColor=#2875E2;strokeColor=#ffffff;points=[[0.005,0.63,0],[0.1,0.2,0],[0.9,0.2,0],[0.5,0,0],[0.995,0.63,0],[0.72,0.99,0],[0.5,1,0],[0.28,0.99,0]];shape=mxgraph.kubernetes.icon2;prIcon=svc" parent="1" vertex="1">
          <mxGeometry x="390" y="186" width="50" height="48" as="geometry" />
        </mxCell>
        <mxCell id="kufTj_RopSPvjLtaQXOu-38" value="" style="aspect=fixed;sketch=0;html=1;dashed=0;whitespace=wrap;verticalLabelPosition=bottom;verticalAlign=top;fillColor=#2875E2;strokeColor=#ffffff;points=[[0.005,0.63,0],[0.1,0.2,0],[0.9,0.2,0],[0.5,0,0],[0.995,0.63,0],[0.72,0.99,0],[0.5,1,0],[0.28,0.99,0]];shape=mxgraph.kubernetes.icon2;prIcon=svc" parent="1" vertex="1">
          <mxGeometry x="540" y="186" width="50" height="48" as="geometry" />
        </mxCell>
        <mxCell id="kufTj_RopSPvjLtaQXOu-39" value="intens" style="text;html=1;align=center;verticalAlign=middle;resizable=0;points=[];autosize=1;strokeColor=none;fillColor=none;" parent="1" vertex="1">
          <mxGeometry x="470" y="350" width="60" height="30" as="geometry" />
        </mxCell>
        <mxCell id="kufTj_RopSPvjLtaQXOu-40" value="webtens" style="text;html=1;align=center;verticalAlign=middle;resizable=0;points=[];autosize=1;strokeColor=none;fillColor=none;" parent="1" vertex="1">
          <mxGeometry x="380" y="228" width="70" height="30" as="geometry" />
        </mxCell>
        <mxCell id="kufTj_RopSPvjLtaQXOu-41" value="config-controller" style="text;html=1;align=center;verticalAlign=middle;resizable=0;points=[];autosize=1;strokeColor=none;fillColor=none;" parent="1" vertex="1">
          <mxGeometry x="500" y="228" width="110" height="30" as="geometry" />
        </mxCell>
        <mxCell id="kufTj_RopSPvjLtaQXOu-42" value="workbook" style="text;html=1;align=center;verticalAlign=middle;resizable=0;points=[];autosize=1;strokeColor=none;fillColor=none;" parent="1" vertex="1">
          <mxGeometry x="220" y="228" width="70" height="30" as="geometry" />
        </mxCell>
        <mxCell id="kufTj_RopSPvjLtaQXOu-43" value="" style="aspect=fixed;sketch=0;html=1;dashed=0;whitespace=wrap;verticalLabelPosition=bottom;verticalAlign=top;fillColor=#2875E2;strokeColor=#ffffff;points=[[0.005,0.63,0],[0.1,0.2,0],[0.9,0.2,0],[0.5,0,0],[0.995,0.63,0],[0.72,0.99,0],[0.5,1,0],[0.28,0.99,0]];shape=mxgraph.kubernetes.icon2;prIcon=svc" parent="1" vertex="1">
          <mxGeometry x="330" y="310" width="50" height="48" as="geometry" />
        </mxCell>
        <mxCell id="kufTj_RopSPvjLtaQXOu-44" value="" style="endArrow=classic;html=1;rounded=0;entryX=1.063;entryY=0.92;entryDx=0;entryDy=0;entryPerimeter=0;" parent="1" source="kufTj_RopSPvjLtaQXOu-38" target="kufTj_RopSPvjLtaQXOu-36" edge="1">
          <mxGeometry width="50" height="50" relative="1" as="geometry">
            <mxPoint x="390" y="270" as="sourcePoint" />
            <mxPoint x="440" y="220" as="targetPoint" />
          </mxGeometry>
        </mxCell>
        <mxCell id="kufTj_RopSPvjLtaQXOu-45" value="intens-config" style="text;html=1;align=center;verticalAlign=middle;resizable=0;points=[];autosize=1;strokeColor=none;fillColor=none;" parent="1" vertex="1">
          <mxGeometry x="440" y="170" width="90" height="30" as="geometry" />
        </mxCell>
        <mxCell id="kufTj_RopSPvjLtaQXOu-47" value="" style="endArrow=classic;html=1;rounded=0;entryX=0.1;entryY=0;entryDx=0;entryDy=0;entryPerimeter=0;exitX=0.704;exitY=0.913;exitDx=0;exitDy=0;exitPerimeter=0;" parent="1" source="kufTj_RopSPvjLtaQXOu-40" target="kufTj_RopSPvjLtaQXOu-34" edge="1">
          <mxGeometry width="50" height="50" relative="1" as="geometry">
            <mxPoint x="390" y="280" as="sourcePoint" />
            <mxPoint x="440" y="230" as="targetPoint" />
          </mxGeometry>
        </mxCell>
        <mxCell id="kufTj_RopSPvjLtaQXOu-49" value="api-gateway" style="text;html=1;align=center;verticalAlign=middle;resizable=0;points=[];autosize=1;strokeColor=none;fillColor=none;" parent="1" vertex="1">
          <mxGeometry x="310" y="350" width="90" height="30" as="geometry" />
        </mxCell>
      </root>
    </mxGraphModel>
  </diagram>
</mxfile>
